<svg width="19" height="19" viewBox="0 0 19 19" fill="none" xmlns="http://www.w3.org/2000/svg">
<path d="M9.49838 10.3479L4.97348 14.8728C4.73917 15.1072 4.35927 15.1072 4.12495 14.8728C3.89064 14.6385 3.89064 14.2586 4.12495 14.0243L8.64986 9.49941L4.12588 4.97544C3.89156 4.74112 3.89156 4.36122 4.12588 4.12691C4.36019 3.89259 4.74009 3.89259 4.97441 4.12691L9.49838 8.65089L14.0243 4.12495C14.2586 3.89064 14.6385 3.89064 14.8728 4.12495C15.1072 4.35927 15.1072 4.73917 14.8728 4.97348L10.3469 9.49941L14.8711 14.0236C15.1054 14.2579 15.1054 14.6378 14.8711 14.8721C14.6367 15.1064 14.2568 15.1064 14.0225 14.8721L9.49838 10.3479Z" fill="black"/>
</svg>
