<svg width="19" height="19" viewBox="0 0 19 19" fill="none" xmlns="http://www.w3.org/2000/svg">
<path fill-rule="evenodd" clip-rule="evenodd" d="M3.41828 11.0524L10.2859 4.18849L10.9371 3.53724L10.9494 3.52474L11.8366 2.63882C12.314 2.1832 12.9485 1.92899 13.6084 1.92899C14.2684 1.92899 14.9029 2.1832 15.3803 2.63882L16.2662 3.52474C16.736 3.99472 17 4.63205 17 5.29659C17 5.96113 16.736 6.59846 16.2662 7.06843L15.3805 7.95537L15.3809 7.95576L14.4949 8.84182L14.4946 8.84154L7.84914 15.4858C7.77207 15.563 7.67618 15.6187 7.57096 15.6474L2.69777 16.9769C2.64383 16.9914 2.5882 16.9986 2.53236 16.9983C2.43614 16.9981 2.34124 16.9759 2.25501 16.9332C2.16878 16.8905 2.09354 16.8285 2.03513 16.752C1.97673 16.6756 1.93671 16.5867 1.9182 16.4923C1.89969 16.3978 1.90317 16.3004 1.92838 16.2076L3.25664 11.3344C3.28478 11.2278 3.34054 11.1306 3.41828 11.0524ZM14.4947 7.06939L15.3803 6.18251C15.6152 5.94752 15.7472 5.62886 15.7472 5.29659C15.7472 4.96432 15.6152 4.64565 15.3803 4.41067L14.4944 3.52474C14.3783 3.40799 14.2403 3.31542 14.0882 3.25239C13.9361 3.18937 13.7731 3.15715 13.6084 3.15759C13.4438 3.15715 13.2808 3.18937 13.1287 3.25239C12.9766 3.31542 12.8386 3.40799 12.7225 3.52474L11.8356 4.41037L14.4947 7.06939ZM11.1853 5.53243L10.9492 5.29707L4.42199 11.8243L4.42155 11.8259L4.74803 11.4995L7.40329 14.1547L13.6048 7.95199L11.1853 5.53243ZM6.19618 14.7197L4.18186 12.7054L3.4258 15.4795L6.19618 14.7197Z" fill="#121211"/>
</svg>
