<svg width="19" height="19" viewBox="0 0 19 19" fill="none" xmlns="http://www.w3.org/2000/svg">
<path fill-rule="evenodd" clip-rule="evenodd" d="M8 2H11C11.5523 2 12 2.44772 12 3H7C7 2.44772 7.44772 2 8 2ZM6 3C6 1.89543 6.89543 1 8 1H11C12.1046 1 13 1.89543 13 3H17.5C17.7761 3 18 3.22386 18 3.5C18 3.77614 17.7761 4 17.5 4H15.9645L15.0308 17.0714C14.9934 17.5947 14.558 18.0002 14.0334 18.0002H4.96448C4.43984 18.0002 4.0044 17.5947 3.96702 17.0714L3.0333 4H1.5C1.22386 4 1 3.77614 1 3.5C1 3.22386 1.22386 3 1.5 3H6ZM13 4H6H4.03585L4.94458 16.7215C4.95579 16.8785 5.08642 17.0002 5.24381 17.0002L13.754 17.0002C13.9114 17.0002 14.0421 16.8785 14.0533 16.7215L14.962 4H13ZM9.5 15C9.22386 15 9 14.7761 9 14.5V6.5C9 6.22386 9.22386 6 9.5 6C9.77614 6 10 6.22386 10 6.5V14.5C10 14.7761 9.77614 15 9.5 15ZM11.5267 14.4871C11.5114 14.7625 11.723 14.9925 11.9993 15.0009C12.2757 15.0093 12.5121 14.7928 12.5274 14.5174L12.972 6.5147C12.9873 6.2393 12.7757 6.00926 12.4993 6.0009C12.223 5.99254 11.9866 6.20901 11.9713 6.48441L11.5267 14.4871ZM7.00067 15.0009C7.277 14.9925 7.48861 14.7625 7.47331 14.4871L7.02872 6.48441C7.01342 6.20901 6.777 5.99254 6.50067 6.0009C6.22434 6.00926 6.01273 6.2393 6.02803 6.5147L6.47262 14.5174C6.48793 14.7928 6.72434 15.0092 7.00067 15.0009Z" fill="#121211"/>
</svg>
